<svg width="512" height="512" viewBox="0 0 512 512" fill="none" xmlns="http://www.w3.org/2000/svg">
<g clip-path="url(#clip0)">
<path d="M255.804 511.608C397.081 511.608 511.608 397.081 511.608 255.804C511.608 114.527 397.081 0 255.804 0C114.527 0 0 114.527 0 255.804C0 397.081 114.527 511.608 255.804 511.608Z" fill="#FFCCCC"/>
<path d="M257.616 405.724H180.284V424.968H257.616V405.724Z" fill="#F5EB07"/>
<path d="M255.08 409.284H252.604V421.364H255.08V409.284Z" fill="#E8BB20"/>
<path d="M248.72 409.284H246.244V421.364H248.72V409.284Z" fill="#E8BB20"/>
<path d="M242.36 409.284H239.884V421.364H242.36V409.284Z" fill="#E8BB20"/>
<path d="M236.04 409.284H233.564V421.364H236.04V409.284Z" fill="#E8BB20"/>
<path d="M229.684 409.284H227.208V421.364H229.684V409.284Z" fill="#E8BB20"/>
<path d="M223.36 409.284H220.884V421.364H223.36V409.284Z" fill="#E8BB20"/>
<path d="M216.996 409.284H214.52V421.364H216.996V409.284Z" fill="#E8BB20"/>
<path d="M210.64 409.284H208.164V421.364H210.64V409.284Z" fill="#E8BB20"/>
<path d="M204.32 409.284H201.844V421.364H204.32V409.284Z" fill="#E8BB20"/>
<path d="M197.964 409.284H195.488V421.364H197.964V409.284Z" fill="#E8BB20"/>
<path d="M191.64 409.284H189.164V421.364H191.64V409.284Z" fill="#E8BB20"/>
<path d="M185.276 409.284H182.8V421.364H185.276V409.284Z" fill="#E8BB20"/>
<path d="M249.336 384.524H172.004V403.768H249.336V384.524Z" fill="#F5EB07"/>
<path d="M246.8 388.124H244.324V400.204H246.8V388.124Z" fill="#E8BB20"/>
<path d="M240.44 388.124H237.964V400.204H240.44V388.124Z" fill="#E8BB20"/>
<path d="M234.096 388.124H231.62V400.204H234.096V388.124Z" fill="#E8BB20"/>
<path d="M227.76 388.124H225.284V400.204H227.76V388.124Z" fill="#E8BB20"/>
<path d="M221.408 388.124H218.932V400.204H221.408V388.124Z" fill="#E8BB20"/>
<path d="M215.08 388.124H212.604V400.204H215.08V388.124Z" fill="#E8BB20"/>
<path d="M208.72 388.124H206.244V400.204H208.72V388.124Z" fill="#E8BB20"/>
<path d="M202.36 388.124H199.884V400.204H202.36V388.124Z" fill="#E8BB20"/>
<path d="M196.04 388.124H193.564V400.204H196.04V388.124Z" fill="#E8BB20"/>
<path d="M189.684 388.124H187.208V400.204H189.684V388.124Z" fill="#E8BB20"/>
<path d="M183.36 388.124H180.884V400.204H183.36V388.124Z" fill="#E8BB20"/>
<path d="M176.996 388.124H174.52V400.204H176.996V388.124Z" fill="#E8BB20"/>
<path d="M240.5 363.324H163.168V382.568H240.5V363.324Z" fill="#F5EB07"/>
<path d="M237.964 366.924H235.488V379.004H237.964V366.924Z" fill="#E8BB20"/>
<path d="M231.64 366.924H229.164V379.004H231.64V366.924Z" fill="#E8BB20"/>
<path d="M225.276 366.924H222.8V379.004H225.276V366.924Z" fill="#E8BB20"/>
<path d="M218.92 366.924H216.444V379.004H218.92V366.924Z" fill="#E8BB20"/>
<path d="M212.588 366.924H210.112V379.004H212.588V366.924Z" fill="#E8BB20"/>
<path d="M206.244 366.924H203.768V379.004H206.244V366.924Z" fill="#E8BB20"/>
<path d="M199.92 366.924H197.444V379.004H199.92V366.924Z" fill="#E8BB20"/>
<path d="M193.556 366.924H191.08V379.004H193.556V366.924Z" fill="#E8BB20"/>
<path d="M187.2 366.924H184.724V379.004H187.2V366.924Z" fill="#E8BB20"/>
<path d="M180.864 366.924H178.388V379.004H180.864V366.924Z" fill="#E8BB20"/>
<path d="M174.52 366.924H172.044V379.004H174.52V366.924Z" fill="#E8BB20"/>
<path d="M168.176 366.924H165.7V379.004H168.176V366.924Z" fill="#E8BB20"/>
<path d="M216.639 362.143L260.691 318.092L249.728 307.129L205.676 351.181L216.639 362.143Z" fill="#F5EB07"/>
<path d="M255.783 318.901L257.191 317.493L250.313 310.614L248.904 312.023L255.783 318.901Z" fill="#E8BB20"/>
<path d="M252.143 322.513L253.552 321.104L246.673 314.225L245.264 315.634L252.143 322.513Z" fill="#E8BB20"/>
<path d="M248.576 326.112L249.984 324.704L243.105 317.825L241.697 319.234L248.576 326.112Z" fill="#E8BB20"/>
<path d="M244.935 329.752L246.344 328.343L239.465 321.464L238.056 322.873L244.935 329.752Z" fill="#E8BB20"/>
<path d="M241.348 333.351L242.756 331.943L235.877 325.064L234.469 326.472L241.348 333.351Z" fill="#E8BB20"/>
<path d="M237.732 336.958L239.14 335.55L232.261 328.671L230.853 330.08L237.732 336.958Z" fill="#E8BB20"/>
<path d="M234.102 340.561L235.511 339.153L228.632 332.274L227.224 333.683L234.102 340.561Z" fill="#E8BB20"/>
<path d="M230.485 344.207L231.894 342.798L225.015 335.92L223.606 337.328L230.485 344.207Z" fill="#E8BB20"/>
<path d="M226.878 347.811L228.286 346.402L221.407 339.523L219.999 340.932L226.878 347.811Z" fill="#E8BB20"/>
<path d="M223.266 351.409L224.674 350L217.795 343.122L216.387 344.53L223.266 351.409Z" fill="#E8BB20"/>
<path d="M219.652 355.051L221.06 353.642L214.181 346.764L212.773 348.172L219.652 355.051Z" fill="#E8BB20"/>
<path d="M216.023 358.663L217.432 357.255L210.553 350.376L209.144 351.784L216.023 358.663Z" fill="#E8BB20"/>
<path d="M199.129 355.495L243.181 311.443L232.218 300.48L188.166 344.532L199.129 355.495Z" fill="#F5EB07"/>
<path d="M238.282 312.241L239.691 310.833L232.812 303.954L231.403 305.362L238.282 312.241Z" fill="#E8BB20"/>
<path d="M234.676 315.854L236.085 314.445L229.206 307.567L227.798 308.975L234.676 315.854Z" fill="#E8BB20"/>
<path d="M231.096 319.477L232.505 318.068L225.626 311.19L224.218 312.598L231.096 319.477Z" fill="#E8BB20"/>
<path d="M227.457 323.1L228.866 321.692L221.987 314.813L220.579 316.221L227.457 323.1Z" fill="#E8BB20"/>
<path d="M223.843 326.68L225.252 325.271L218.373 318.393L216.965 319.801L223.843 326.68Z" fill="#E8BB20"/>
<path d="M220.228 330.336L221.636 328.928L214.758 322.049L213.349 323.458L220.228 330.336Z" fill="#E8BB20"/>
<path d="M216.615 333.907L218.024 332.498L211.145 325.619L209.736 327.028L216.615 333.907Z" fill="#E8BB20"/>
<path d="M212.999 337.518L214.408 336.109L207.529 329.231L206.121 330.639L212.999 337.518Z" fill="#E8BB20"/>
<path d="M209.368 341.186L210.776 339.778L203.898 332.899L202.489 334.307L209.368 341.186Z" fill="#E8BB20"/>
<path d="M205.762 344.771L207.171 343.362L200.292 336.483L198.883 337.892L205.762 344.771Z" fill="#E8BB20"/>
<path d="M202.15 348.385L203.559 346.976L196.68 340.098L195.272 341.506L202.15 348.385Z" fill="#E8BB20"/>
<path d="M198.53 351.994L199.939 350.585L193.06 343.707L191.652 345.115L198.53 351.994Z" fill="#E8BB20"/>
<path d="M169.566 360.895L213.618 316.844L202.655 305.881L158.603 349.932L169.566 360.895Z" fill="#F5EB07"/>
<path d="M208.724 317.647L210.132 316.238L203.254 309.36L201.845 310.768L208.724 317.647Z" fill="#E8BB20"/>
<path d="M205.124 321.315L206.532 319.906L199.654 313.027L198.245 314.436L205.124 321.315Z" fill="#E8BB20"/>
<path d="M201.484 324.894L202.892 323.485L196.014 316.607L194.605 318.015L201.484 324.894Z" fill="#E8BB20"/>
<path d="M197.886 328.517L199.295 327.108L192.416 320.23L191.008 321.638L197.886 328.517Z" fill="#E8BB20"/>
<path d="M194.279 332.13L195.688 330.722L188.809 323.843L187.4 325.252L194.279 332.13Z" fill="#E8BB20"/>
<path d="M190.652 335.736L192.06 334.327L185.182 327.449L183.773 328.857L190.652 335.736Z" fill="#E8BB20"/>
<path d="M187.031 339.356L188.44 337.948L181.561 331.069L180.153 332.478L187.031 339.356Z" fill="#E8BB20"/>
<path d="M183.432 342.971L184.841 341.562L177.962 334.684L176.553 336.092L183.432 342.971Z" fill="#E8BB20"/>
<path d="M179.808 346.586L181.216 345.177L174.338 338.299L172.929 339.707L179.808 346.586Z" fill="#E8BB20"/>
<path d="M176.204 350.157L177.612 348.749L170.734 341.87L169.325 343.278L176.204 350.157Z" fill="#E8BB20"/>
<path d="M172.564 353.817L173.973 352.409L167.094 345.53L165.686 346.939L172.564 353.817Z" fill="#E8BB20"/>
<path d="M168.964 357.396L170.372 355.987L163.493 349.109L162.085 350.517L168.964 357.396Z" fill="#E8BB20"/>
<path d="M245.376 370.3L300.057 424.981L313.664 411.373L258.984 356.693L245.376 370.3Z" fill="#F5EB07"/>
<path d="M299.05 418.88L300.801 420.631L309.342 412.089L307.592 410.338L299.05 418.88Z" fill="#E8BB20"/>
<path d="M294.569 414.403L296.32 416.154L304.862 407.612L303.111 405.861L294.569 414.403Z" fill="#E8BB20"/>
<path d="M290.089 409.924L291.84 411.675L300.382 403.133L298.631 401.382L290.089 409.924Z" fill="#E8BB20"/>
<path d="M285.609 405.448L287.36 407.199L295.901 398.657L294.151 396.907L285.609 405.448Z" fill="#E8BB20"/>
<path d="M281.101 400.945L282.852 402.696L291.394 394.154L289.643 392.403L281.101 400.945Z" fill="#E8BB20"/>
<path d="M276.61 396.436L278.36 398.187L286.902 389.645L285.151 387.894L276.61 396.436Z" fill="#E8BB20"/>
<path d="M272.129 391.96L273.88 393.711L282.422 385.169L280.671 383.419L272.129 391.96Z" fill="#E8BB20"/>
<path d="M267.649 387.485L269.4 389.236L277.941 380.694L276.191 378.943L267.649 387.485Z" fill="#E8BB20"/>
<path d="M263.164 383L264.915 384.75L273.456 376.209L271.706 374.458L263.164 383Z" fill="#E8BB20"/>
<path d="M258.689 378.533L260.44 380.284L268.982 371.742L267.231 369.992L258.689 378.533Z" fill="#E8BB20"/>
<path d="M254.209 374.05L255.96 375.801L264.501 367.259L262.751 365.508L254.209 374.05Z" fill="#E8BB20"/>
<path d="M249.702 369.542L251.452 371.293L259.994 362.751L258.243 361L249.702 369.542Z" fill="#E8BB20"/>
<path d="M254.521 349.452L309.202 404.133L322.809 390.526L268.128 335.845L254.521 349.452Z" fill="#F5EB07"/>
<path d="M308.195 398.032L309.946 399.783L318.487 391.241L316.737 389.491L308.195 398.032Z" fill="#E8BB20"/>
<path d="M303.717 393.552L305.468 395.302L314.01 386.761L312.259 385.01L303.717 393.552Z" fill="#E8BB20"/>
<path d="M299.195 389.077L300.946 390.828L309.488 382.286L307.737 380.535L299.195 389.077Z" fill="#E8BB20"/>
<path d="M294.715 384.597L296.465 386.348L305.007 377.807L303.256 376.056L294.715 384.597Z" fill="#E8BB20"/>
<path d="M290.235 380.121L291.986 381.872L300.528 373.33L298.777 371.58L290.235 380.121Z" fill="#E8BB20"/>
<path d="M285.783 375.617L287.534 377.368L296.075 368.826L294.325 367.075L285.783 375.617Z" fill="#E8BB20"/>
<path d="M281.275 371.11L283.026 372.86L291.567 364.319L289.817 362.568L281.275 371.11Z" fill="#E8BB20"/>
<path d="M276.795 366.634L278.545 368.385L287.087 359.843L285.336 358.092L276.795 366.634Z" fill="#E8BB20"/>
<path d="M272.275 362.158L274.026 363.909L282.568 355.367L280.817 353.616L272.275 362.158Z" fill="#E8BB20"/>
<path d="M267.792 357.676L269.543 359.427L278.085 350.885L276.334 349.134L267.792 357.676Z" fill="#E8BB20"/>
<path d="M263.32 353.186L265.071 354.937L273.612 346.395L271.862 344.644L263.32 353.186Z" fill="#E8BB20"/>
<path d="M258.852 348.684L260.602 350.435L269.144 341.893L267.393 340.142L258.852 348.684Z" fill="#E8BB20"/>
<path d="M275.338 340.323L330.019 395.004L343.626 381.397L288.945 326.716L275.338 340.323Z" fill="#F5EB07"/>
<path d="M329.019 388.912L330.77 390.662L339.312 382.121L337.561 380.37L329.019 388.912Z" fill="#E8BB20"/>
<path d="M324.54 384.431L326.291 386.182L334.832 377.64L333.081 375.89L324.54 384.431Z" fill="#E8BB20"/>
<path d="M320.059 379.956L321.81 381.707L330.352 373.165L328.601 371.414L320.059 379.956Z" fill="#E8BB20"/>
<path d="M315.561 375.442L317.312 377.193L325.854 368.651L324.103 366.901L315.561 375.442Z" fill="#E8BB20"/>
<path d="M311.088 370.961L312.838 372.712L321.38 364.17L319.629 362.419L311.088 370.961Z" fill="#E8BB20"/>
<path d="M306.58 366.464L308.33 368.215L316.872 359.673L315.121 357.922L306.58 366.464Z" fill="#E8BB20"/>
<path d="M302.099 361.981L303.85 363.732L312.392 355.19L310.641 353.439L302.099 361.981Z" fill="#E8BB20"/>
<path d="M297.619 357.509L299.37 359.26L307.912 350.718L306.161 348.967L297.619 357.509Z" fill="#E8BB20"/>
<path d="M293.148 353.022L294.899 354.772L303.44 346.231L301.69 344.48L293.148 353.022Z" fill="#E8BB20"/>
<path d="M288.659 348.558L290.41 350.309L298.952 341.767L297.201 340.016L288.659 348.558Z" fill="#E8BB20"/>
<path d="M284.168 344.05L285.918 345.801L294.46 337.259L292.709 335.508L284.168 344.05Z" fill="#E8BB20"/>
<path d="M279.676 339.563L281.427 341.314L289.969 332.772L288.218 331.021L279.676 339.563Z" fill="#E8BB20"/>
<path d="M297.079 332.059L351.76 386.74L365.367 373.132L310.686 318.451L297.079 332.059Z" fill="#F5EB07"/>
<path d="M350.724 380.663L352.475 382.414L361.017 373.872L359.266 372.121L350.724 380.663Z" fill="#E8BB20"/>
<path d="M346.272 376.163L348.023 377.914L356.565 369.372L354.814 367.621L346.272 376.163Z" fill="#E8BB20"/>
<path d="M341.792 371.684L343.543 373.435L352.085 364.893L350.334 363.142L341.792 371.684Z" fill="#E8BB20"/>
<path d="M337.273 367.208L339.023 368.958L347.565 360.417L345.814 358.666L337.273 367.208Z" fill="#E8BB20"/>
<path d="M332.764 362.704L334.515 364.454L343.057 355.913L341.306 354.162L332.764 362.704Z" fill="#E8BB20"/>
<path d="M328.284 358.224L330.035 359.975L338.576 351.433L336.826 349.683L328.284 358.224Z" fill="#E8BB20"/>
<path d="M323.81 353.755L325.561 355.505L334.103 346.964L332.352 345.213L323.81 353.755Z" fill="#E8BB20"/>
<path d="M319.349 349.228L321.1 350.979L329.641 342.437L327.891 340.687L319.349 349.228Z" fill="#E8BB20"/>
<path d="M314.873 344.765L316.623 346.516L325.165 337.974L323.414 336.223L314.873 344.765Z" fill="#E8BB20"/>
<path d="M310.393 340.277L312.144 342.028L320.685 333.486L318.935 331.735L310.393 340.277Z" fill="#E8BB20"/>
<path d="M305.873 335.81L307.623 337.56L316.165 329.019L314.414 327.268L305.873 335.81Z" fill="#E8BB20"/>
<path d="M301.364 331.297L303.115 333.048L311.657 324.506L309.906 322.756L301.364 331.297Z" fill="#E8BB20"/>
<path d="M268.312 285.208C252.972 272.632 230.388 272.632 215.048 285.208C194.316 302.204 194.316 333.652 215.048 350.648C230.388 363.224 252.972 363.224 268.312 350.648C289.044 333.648 289.044 302.204 268.312 285.208Z" fill="#E8BB20"/>
<path d="M241.68 353.416C261.284 353.42 277.176 337.528 277.172 317.924C277.172 298.324 261.28 282.432 241.68 282.432C222.08 282.432 206.188 298.324 206.188 317.924C206.188 337.524 222.076 353.416 241.68 353.416ZM209.924 317.924C209.92 300.384 224.14 286.164 241.68 286.168C259.224 286.168 273.44 300.384 273.44 317.928C273.44 335.464 259.22 349.684 241.684 349.684C224.14 349.684 209.924 335.468 209.924 317.924Z" fill="#F5EA07"/>
<path d="M240.432 338.292V334.704C235.944 334.244 231.916 332.46 228.348 329.348L231.936 325.072C234.688 327.464 237.52 328.888 240.436 329.348V319.816C236.736 318.932 234.024 317.768 232.304 316.328C230.584 314.888 229.724 312.748 229.724 309.916C229.724 307.084 230.712 304.764 232.696 302.964C234.676 301.164 237.256 300.18 240.436 300.016V297.56H243.58V300.064C247.184 300.328 250.588 301.556 253.8 303.748L250.608 308.268C248.444 306.728 246.104 305.78 243.584 305.42V314.656H243.732C247.496 315.54 250.268 316.736 252.036 318.244C253.804 319.752 254.688 321.936 254.688 324.804C254.688 327.672 253.672 330.004 251.64 331.804C249.608 333.604 246.924 334.588 243.584 334.752V338.288H240.432V338.292V338.292ZM236.968 306.576C236.132 307.312 235.716 308.232 235.716 309.328C235.716 310.424 236.044 311.292 236.7 311.932C237.356 312.572 238.6 313.184 240.432 313.776V305.276C238.96 305.404 237.804 305.84 236.968 306.576ZM247.312 328.12C248.228 327.368 248.688 326.416 248.688 325.272C248.688 324.124 248.328 323.216 247.608 322.544C246.888 321.872 245.544 321.244 243.58 320.652V329.496C245.152 329.332 246.396 328.876 247.312 328.12Z" fill="#F5EA07"/>
<path d="M332.84 352.756C332.84 352.756 336.948 371.78 348.168 387.628C352.304 393.468 355.624 399.9 357.664 406.796C358.6 409.968 359.404 413.42 359.808 416.856C360.228 420.432 363.344 423.064 366.724 422.8C371.064 422.464 377.332 420.648 384.92 414.672C386.984 413.048 387.764 410.16 386.9 407.5C383.384 396.672 375.056 367.892 380.368 352.744L332.84 352.756Z" fill="#D2D2D4"/>
<path d="M431.652 292.528C427.844 292.324 424.98 291.596 422.892 290.768C425.26 288.372 426.792 284.912 427.064 281.04C427.62 273.18 422.732 266.74 416.376 266.3C410.128 265.848 404.3 271.328 403.728 279.408C403.352 284.764 405.576 289.604 409.148 292.196C407.744 294.576 405.844 296.468 404.004 297.916C388.396 264.712 343.112 249.984 297.38 262.884L302.844 265.276L294.732 290.208L314.408 298.832L306.296 323.764L325.972 332.388L317.86 357.32L337.54 365.952L329.428 390.884L349.104 399.508L347.804 403.488C355.308 400.156 362.284 396.2 368.632 391.748C374.168 400.372 377.332 409.528 378.34 418.108C378.764 421.688 381.884 424.316 385.252 424.052C389.6 423.72 395.864 421.904 403.448 415.928C405.516 414.3 406.296 411.42 405.428 408.752C403.06 401.44 398.492 385.944 397.412 371.984C397 366.648 398.124 361.28 400.648 356.56C409.348 340.296 412.064 322.552 407.096 305.988C410.116 303.932 413.616 300.912 416.16 296.72C419.344 298.624 424.248 300.516 431.432 300.864C434.068 301.008 436.256 298.648 435.724 295.868C435.356 293.964 433.584 292.632 431.652 292.528ZM415.004 285.832C410.692 285.524 411.332 274.26 415.788 274.616C420.072 274.908 419.488 286.188 415.004 285.832Z" fill="#FDFEFF"/>
<path d="M330.28 278.816C319.568 277.772 308.348 278.856 297.428 281.892L294.724 290.204L298.924 292.044C309.024 289.072 319.42 287.992 329.288 288.956C330.072 289.032 330.828 288.928 331.524 288.676C333.308 288.028 334.656 286.4 334.856 284.38C335.128 281.584 333.08 279.092 330.28 278.816Z" fill="#D2D2D4"/>
<path d="M113.384 332.368C113.384 332.368 104.744 348.364 103.584 366.532C102.88 377.572 99.476 387.004 94.436 394.42C92.54 397.208 93.32 401.004 96.092 402.916C99.66 405.376 105.64 407.984 115.22 408.476C117.828 408.608 120.224 407.056 121.208 404.64C125.216 394.804 136.648 369.292 150.164 361.888L113.384 332.368Z" fill="#D2D2D4"/>
<path d="M168.412 383.136L190.652 369.252L181.124 349.988L203.364 336.104L193.832 316.852L216.072 302.968L206.54 283.716L228.78 269.832L226.136 264.488C223.252 263.188 220.284 261.98 217.244 260.872C169.704 243.568 155.208 264.332 138.984 245.96C131.88 237.92 124.316 232.82 124.316 232.82C113.108 249.756 121.644 269.092 120.276 265.092C121.736 269.36 119.044 270.888 115.972 273.64C106.084 282.508 95.9399 277.464 90.0079 275.304L80.2439 319.34C85.9199 321.408 95.2759 323.696 98.0679 334.464C100.364 343.328 104.452 352.032 110.088 360.2C119.12 373.292 114.96 395.536 105.872 408.872C103.984 411.644 104.768 415.396 107.528 417.3C111.096 419.768 117.084 422.388 126.692 422.88C129.304 423.02 131.696 421.46 132.68 419.04C135.008 413.332 139.836 402.336 146.124 392.676C152.284 396.208 158.904 399.3 165.928 401.856C168.744 402.88 171.568 403.792 174.388 404.604L177.94 402.388L168.412 383.136Z" fill="#FDFEFF"/>
<path d="M213.96 279.084C211.68 278.048 209.368 277.064 206.996 276.2C197.512 272.748 187.764 270.832 178.024 270.504C175.212 270.412 172.856 272.612 172.764 275.424C172.668 278.236 174.872 280.588 177.684 280.688C186.348 280.98 195.04 282.688 203.512 285.772C205.232 286.4 206.916 287.092 208.584 287.82L206.548 283.712L213.96 279.084Z" fill="#D2D2D4"/>
<path d="M139.692 297.424C137.86 302.46 132.288 305.06 127.252 303.224C122.216 301.392 119.616 295.82 121.452 290.784C125.836 278.736 144.084 285.36 139.692 297.424Z" fill="#D2D2D4"/>
<path d="M93.0679 300.212C90.3719 312.372 84.6319 320.932 80.2479 319.336C75.8599 317.74 74.4919 306.588 77.1839 294.428C79.8799 282.268 85.6199 273.708 90.0039 275.304C94.3879 276.9 95.7639 288.056 93.0679 300.212Z" fill="#E8E7E8"/>
<path d="M91.208 298.42C90.46 303.84 88.82 308 87.54 307.712C86.26 307.424 85.8279 302.8 86.5759 297.38C87.3239 291.96 88.964 287.8 90.244 288.088C91.524 288.376 91.956 293 91.208 298.42Z" fill="#D2D2D4"/>
<path d="M83.872 296.776C83.124 302.196 81.484 306.356 80.204 306.068C78.924 305.78 78.492 301.156 79.24 295.736C79.988 290.316 81.628 286.156 82.908 286.444C84.184 286.728 84.616 291.356 83.872 296.776Z" fill="#D2D2D4"/>
<path d="M256.087 210.604L426.755 112.066L412.073 86.6372L241.405 185.175L256.087 210.604Z" fill="#F5EA07"/>
<path d="M256.086 210.6L426.754 112.062L423.16 105.837L252.492 204.375L256.086 210.6Z" fill="#E8BB20"/>
<path d="M313.06 205.34L278.068 225.868L239.108 158.384L242.996 133.3L264.228 120.76L313.06 205.34Z" fill="#4D535F"/>
<path d="M139.696 265.852C140.36 264.512 140.124 262.78 139.124 261.668C138.544 261.02 137.76 260.592 137.096 260.028C131.456 255.22 136.84 243.544 126.912 240.7C125.86 242.06 126.96 244.008 126.852 245.724C126.784 246.812 126.216 247.792 125.736 248.772C123.9 252.532 122.428 260.092 125.012 263.292C126.76 265.456 130.096 265.66 132.056 267.64C134.244 269.852 134.584 271.236 136.676 268.576C137.528 267.484 139.016 267.224 139.696 265.852Z" fill="#D2D2D4"/>
<path d="M183.02 229.848L165.028 237.548L158.544 225.34L169.124 213.128H189.444L183.02 229.848Z" fill="#FDFEFF"/>
<path d="M192.808 174.572L210.8 166.872L217.284 179.084L206.704 191.292H186.38L192.808 174.572Z" fill="#FDFEFF"/>
<path d="M314.832 238.6L307.132 220.608H331.552V245.028L314.832 238.6Z" fill="#FDFEFF"/>
<path d="M356.524 212.556L348.824 194.564H373.24V218.984L356.524 212.556Z" fill="#FDFEFF"/>
<path d="M234.088 249.72L226.388 231.728L238.596 225.244L250.808 235.824V256.148L234.088 249.72Z" fill="#FDFEFF"/>
<path d="M284.036 260.956L291.74 278.948L279.528 285.432L267.32 274.852V254.528L284.036 260.956Z" fill="#FDFEFF"/>
</g>
<defs>
<clipPath id="clip0">
<rect width="511.608" height="511.608" fill="white"/>
</clipPath>
</defs>
</svg>
